<svg xmlns="http://www.w3.org/2000/svg" width="267" height="79"><path d="M9.879 52.32v-6.908h3.851v.924h-2.992v5.983z"/><path d="M9.879 65.32V51.3h.86v14.02z"/><path d="M9.879 72.336V64.3h.86v7.111h2.991v.924zM14.032 75.419v-6.553l6.558 3.277zM32.082 71.213q.419.108.714.406.296.298.736 1.19L34.622 75h-1.165l-.956-2.025q-.414-.865-.744-1.114-.33-.25-.862-.25h-1.037V75h-1.09v-8.019h2.234q1.322 0 2.025.596.704.596.704 1.724 0 .795-.432 1.297-.433.503-1.217.615zm-2.224-3.34v2.846h1.187q.78 0 1.16-.349.382-.349.382-1.069 0-.693-.406-1.06-.405-.368-1.179-.368zM38.309 69.677q-.752 0-1.14.586-.386.585-.386 1.735 0 1.144.387 1.732.387.588 1.139.588.757 0 1.144-.588.386-.588.386-1.732 0-1.15-.386-1.735-.387-.586-1.144-.586zm0-.838q1.251 0 1.914.811.664.811.664 2.348 0 1.541-.66 2.35-.662.808-1.918.808-1.252 0-1.913-.809-.66-.808-.66-2.35 0-1.536.66-2.347.661-.81 1.913-.81zM43.047 72.723v-3.728h.989v3.728q0 .81.287 1.192.287.381.889.381.698 0 1.069-.491.37-.492.37-1.41v-3.4h.994V75h-.994v-.902q-.263.52-.717.79-.454.268-1.06.268-.924 0-1.375-.604-.452-.605-.452-1.83zM52.298 67.276v1.708h2.245v.768h-2.245v3.266q0 .666.252.93.253.262.881.262h1.112V75h-1.209q-1.111 0-1.568-.446-.456-.446-.456-1.536v-3.266h-1.606v-.768h1.606v-1.708zM62.016 71.498v.483h-4.281v.033q-.043 1.23.47 1.767.513.537 1.447.537.473 0 .989-.15.515-.15 1.1-.457v.983q-.563.23-1.087.346-.524.116-1.012.116-1.402 0-2.192-.84-.79-.841-.79-2.318 0-1.44.774-2.3.774-.859 2.063-.859 1.149 0 1.812.78.664.778.707 1.879zm-.989-.29q-.064-.623-.454-1.077-.389-.454-1.12-.454-.714 0-1.176.473-.462.473-.505 1.063zM69.204 70.225q-.317-.247-.645-.36-.328-.113-.72-.113-.923 0-1.412.58-.489.58-.489 1.676V75h-.994v-6.016h.994v1.177q.247-.64.76-.98.513-.342 1.217-.342.365 0 .682.092.317.091.607.284zM76.893 72.336v-.924h6.837v.924zM83.893 72.336v-.924h6.837v.924zM90.893 72.336v-.924h6.837v.924zM97.893 72.336v-.924h6.837v.924zM104.893 72.336v-.924h6.837v.924zM117.436 67.255v1.101q-.495-.317-.991-.478-.497-.161-1.002-.161-.768 0-1.214.357-.446.357-.446.964 0 .532.293.811.293.28 1.093.467l.57.13q1.127.262 1.643.826.515.564.515 1.537 0 1.144-.709 1.745-.709.602-2.062.602-.564 0-1.133-.121-.57-.12-1.144-.363v-1.154q.617.392 1.168.574.55.183 1.109.183.822 0 1.278-.368.457-.368.457-1.029 0-.601-.314-.918-.315-.317-1.093-.489l-.58-.134q-1.118-.253-1.623-.763-.504-.51-.504-1.37 0-1.074.722-1.72.722-.648 1.92-.648.462 0 .972.105.51.104 1.075.314zM122.298 67.276v1.708h2.245v.768h-2.245v3.266q0 .666.252.93.253.262.881.262h1.112V75h-1.209q-1.111 0-1.568-.446-.456-.446-.456-1.536v-3.266h-1.606v-.768h1.606v-1.708zM129.77 71.976h-.327q-.865 0-1.303.304-.437.303-.437.905 0 .542.327.843.328.3.908.3.816 0 1.284-.566.467-.567.472-1.566v-.22zm1.918-.408V75h-.994v-.892q-.317.538-.797.793-.481.255-1.168.255-.919 0-1.467-.519-.548-.518-.548-1.388 0-1.004.674-1.525.674-.521 1.98-.521h1.326v-.156q-.005-.72-.365-1.045-.36-.325-1.15-.325-.504 0-1.02.145-.515.145-1.004.425v-.989q.548-.21 1.05-.314.502-.105.975-.105.746 0 1.275.22.53.22.857.661.204.269.29.664.086.394.086 1.184zM136.298 67.276v1.708h2.245v.768h-2.245v3.266q0 .666.252.93.253.262.881.262h1.112V75h-1.209q-1.111 0-1.568-.446-.456-.446-.456-1.536v-3.266h-1.606v-.768h1.606v-1.708zM146.016 71.498v.483h-4.281v.033q-.043 1.23.47 1.767.513.537 1.447.537.473 0 .989-.15.515-.15 1.1-.457v.983q-.563.23-1.087.346-.524.116-1.012.116-1.402 0-2.192-.84-.79-.841-.79-2.318 0-1.44.774-2.3.774-.859 2.063-.859 1.149 0 1.812.78.664.778.707 1.879zm-.989-.29q-.064-.623-.454-1.077-.389-.454-1.12-.454-.714 0-1.176.473-.462.473-.505 1.063zM153.893 72.336v-.924h6.837v.924zM160.893 72.336v-.924h6.837v.924zM167.893 72.336v-.924h6.837v.924zM175.032 75.419v-6.553l6.558 3.277zM192.309 74.087l1.885-7.106h1.122L192.97 75h-1.316l-2.347-8.019h1.123zM197.697 69.006h2.53v5.226h1.96V75h-4.909v-.768h1.96v-4.458h-1.54zm1.542-2.337h.988v1.247h-.988zM209.016 71.498v.483h-4.281v.033q-.043 1.23.47 1.767.513.537 1.447.537.473 0 .989-.15.515-.15 1.1-.457v.983q-.563.23-1.087.346-.524.116-1.012.116-1.402 0-2.192-.84-.79-.841-.79-2.318 0-1.44.774-2.3.774-.859 2.063-.859 1.149 0 1.812.78.664.778.707 1.879zm-.989-.29q-.064-.623-.454-1.077-.389-.454-1.12-.454-.714 0-1.176.473-.462.473-.505 1.063zM210 68.984h.978l1.047 4.861.86-3.104h.843l.87 3.104 1.047-4.86h.978L215.215 75h-.945l-.961-3.298-.956 3.298h-.946zM222.226 69.194v.967q-.424-.247-.854-.371-.43-.123-.875-.123-.672 0-1.002.217-.33.218-.33.663 0 .403.247.602.247.199 1.23.387l.397.075q.736.14 1.115.558.378.42.378 1.09 0 .892-.634 1.395-.633.502-1.761.502-.446 0-.935-.094-.489-.094-1.058-.282v-1.02q.553.284 1.058.426.505.143.956.143.655 0 1.015-.266.36-.266.36-.744 0-.688-1.316-.95l-.043-.012-.37-.075q-.854-.166-1.246-.561t-.392-1.077q0-.865.585-1.335t1.67-.47q.484 0 .93.089.445.089.875.266zM230.893 72.336v-.924h6.837v.924zM237.893 72.336v-.924h6.837v.924zM244.893 72.336v-.924h6.837v.924zM251.893 72.336v-.924h6.837v.924zM258.893 72.336v-.924h2.986v-7.111h.86v8.035z"/><path d="M261.879 65.32V51.3h.86v14.02zM13.893 46.336v-.924h6.837v.924zM32.082 45.213q.419.108.714.406.296.298.736 1.19L34.622 49h-1.165l-.956-2.025q-.414-.865-.744-1.114-.33-.25-.862-.25h-1.037V49h-1.09v-8.019h2.234q1.322 0 2.025.596.704.596.704 1.724 0 .795-.432 1.297-.433.503-1.217.615zm-2.224-3.34v2.846h1.187q.78 0 1.16-.349.382-.349.382-1.069 0-.693-.406-1.06-.405-.368-1.179-.368zM41.016 45.498v.483h-4.281v.033q-.043 1.23.47 1.767.513.537 1.447.537.473 0 .989-.15.515-.15 1.1-.457v.983q-.563.23-1.087.346-.524.116-1.012.116-1.402 0-2.192-.84-.79-.841-.79-2.318 0-1.44.774-2.3.774-.859 2.063-.859 1.149 0 1.812.78.664.778.707 1.879zm-.989-.29q-.064-.623-.454-1.077-.389-.454-1.12-.454-.714 0-1.176.473-.462.473-.505 1.063zM46.608 43.752v-3.11h.989V49h-.989v-.757q-.247.445-.658.68-.41.233-.948.233-1.09 0-1.716-.846-.625-.846-.625-2.334 0-1.466.628-2.301.628-.836 1.713-.836.543 0 .956.234.414.234.65.68zm-2.905 2.246q0 1.149.365 1.734.365.586 1.08.586.714 0 1.087-.59.373-.592.373-1.73 0-1.144-.373-1.733-.373-.588-1.088-.588-.714 0-1.08.586-.364.585-.364 1.735zM50.047 46.723v-3.728h.989v3.728q0 .81.287 1.192.287.381.889.381.698 0 1.069-.491.37-.492.37-1.41v-3.4h.994V49h-.994v-.902q-.263.52-.717.79-.454.268-1.06.268-.924 0-1.375-.604-.452-.605-.452-1.83zM61.699 48.694q-.398.23-.82.346-.421.116-.861.116-1.397 0-2.184-.838-.787-.838-.787-2.32 0-1.483.787-2.32.787-.839 2.184-.839.435 0 .848.113.414.113.833.35v1.036q-.392-.35-.787-.505-.395-.156-.894-.156-.93 0-1.43.602-.499.601-.499 1.719 0 1.111.503 1.716.502.604 1.426.604.515 0 .923-.159.409-.158.758-.491zM69.016 45.498v.483h-4.281v.033q-.043 1.23.47 1.767.513.537 1.447.537.473 0 .989-.15.515-.15 1.1-.457v.983q-.563.23-1.087.346-.524.116-1.012.116-1.402 0-2.192-.84-.79-.841-.79-2.318 0-1.44.774-2.3.774-.859 2.063-.859 1.149 0 1.812.78.664.778.707 1.879zm-.989-.29q-.064-.623-.454-1.077-.389-.454-1.12-.454-.714 0-1.176.473-.462.473-.505 1.063zM76.204 44.225q-.317-.247-.645-.36-.328-.113-.72-.113-.923 0-1.412.58-.489.58-.489 1.676V49h-.994v-6.016h.994v1.177q.247-.64.76-.98.513-.342 1.217-.342.365 0 .682.092.317.091.607.284zM82.226 43.194v.967q-.424-.247-.854-.371-.43-.123-.875-.123-.672 0-1.002.217-.33.218-.33.663 0 .403.247.602.247.199 1.23.387l.397.075q.736.14 1.115.558.378.42.378 1.09 0 .892-.634 1.395-.633.502-1.761.502-.446 0-.935-.094-.489-.094-1.058-.282v-1.02q.553.284 1.058.426.505.143.956.143.655 0 1.015-.266.36-.266.36-.744 0-.688-1.316-.95l-.043-.012-.37-.075q-.854-.166-1.246-.561t-.392-1.077q0-.865.585-1.335t1.67-.47q.484 0 .93.089.445.089.875.266zM91.032 46.143l6.558-3.277v6.553zM97.893 46.336v-.924h6.837v.924zM104.893 46.336v-.924h6.837v.924zM111.893 46.336v-.924h6.837v.924zM118.893 46.336v-.924h6.837v.924zM125.893 46.336v-.924h6.837v.924zM132.893 46.336v-.924h2.986v-7.111h.86v7.111h2.991v.924zM139.893 46.336v-.924h6.837v.924zM146.893 46.336v-.924h6.837v.924zM157.309 41.937l-1.144 4.104h2.288zm-.656-.956h1.316L160.424 49H159.3l-.59-2.09h-2.81l-.58 2.09H154.2zM166.699 48.694q-.398.23-.82.346-.421.116-.861.116-1.397 0-2.184-.838-.787-.838-.787-2.32 0-1.483.787-2.32.787-.839 2.184-.839.435 0 .848.113.414.113.833.35v1.036q-.392-.35-.787-.505-.395-.156-.894-.156-.93 0-1.43.602-.499.601-.499 1.719 0 1.111.503 1.716.502.604 1.426.604.515 0 .923-.159.409-.158.758-.491zM171.298 41.276v1.708h2.245v.768h-2.245v3.266q0 .666.252.93.253.262.881.262h1.112V49h-1.209q-1.111 0-1.568-.446-.456-.446-.456-1.536v-3.266h-1.606v-.768h1.606v-1.708zM176.697 43.006h2.53v5.226h1.96V49h-4.909v-.768h1.96v-4.458h-1.54zm1.542-2.337h.988v1.247h-.988zM185.309 43.677q-.752 0-1.14.586-.386.585-.386 1.735 0 1.144.387 1.732.387.588 1.139.588.757 0 1.144-.588.386-.588.386-1.732 0-1.15-.386-1.735-.387-.586-1.144-.586zm0-.838q1.251 0 1.914.811.664.811.664 2.348 0 1.541-.66 2.35-.662.808-1.918.808-1.252 0-1.913-.809-.66-.808-.66-2.35 0-1.536.66-2.347.661-.81 1.913-.81zM194.645 45.272V49h-.994v-3.728q0-.81-.284-1.192-.285-.381-.892-.381-.693 0-1.066.491-.373.492-.373 1.41V49h-.989v-6.016h.989v.903q.263-.516.714-.782.451-.266 1.069-.266.918 0 1.372.605.454.604.454 1.828zM201.226 43.194v.967q-.424-.247-.854-.371-.43-.123-.875-.123-.672 0-1.002.217-.33.218-.33.663 0 .403.247.602.247.199 1.23.387l.397.075q.736.14 1.115.558.378.42.378 1.09 0 .892-.634 1.395-.633.502-1.761.502-.446 0-.935-.094-.489-.094-1.058-.282v-1.02q.553.284 1.058.426.505.143.956.143.655 0 1.015-.266.36-.266.36-.744 0-.688-1.316-.95l-.043-.012-.37-.075q-.854-.166-1.246-.561t-.392-1.077q0-.865.585-1.335t1.67-.47q.484 0 .93.089.445.089.875.266zM202.893 46.336v-.924h6.837v.924zM209.893 46.336v-.924h6.837v.924zM226.342 48.108q1.37 0 1.912-.674.542-.674.542-2.435 0-1.778-.54-2.452-.54-.674-1.914-.674h-.516v6.235zm.021-7.127q1.837 0 2.707.977.87.978.87 3.04 0 2.052-.87 3.027-.87.975-2.707.975h-1.627v-8.019zM235.86 44.999q0-1.768-.362-2.525-.362-.757-1.19-.757-.821 0-1.184.757-.362.757-.362 2.525 0 1.761.362 2.519.363.757 1.185.757.827 0 1.19-.755.362-.754.362-2.521zm1.134 0q0 2.094-.663 3.126-.664 1.03-2.022 1.03-1.36 0-2.02-1.025-.66-1.026-.66-3.131 0-2.1.663-3.132.663-1.031 2.017-1.031 1.358 0 2.022 1.031.663 1.031.663 3.132zM238.193 41.008h1.45l1.386 4.071 1.397-4.071h1.455V49h-1.004v-7.063l-1.429 4.21h-.822l-1.434-4.21V49h-.999zM252.032 46.143l6.558-3.277v6.553z"/><path d="M261.879 52.32v-5.984h-2.986v-.924h3.845v6.907zM9.879 33.336V25.3h.86v7.111h2.991v.924zM13.893 33.336v-.924h6.837v.924zM29.058 27.981h4.759v.913h-3.674v2.16h3.513v.912h-3.513v3.12h3.776V36h-4.86zM40.71 27.643v.821h-1.123q-.532 0-.739.218-.206.217-.206.77v.532h2.067v.768h-2.067V36h-.989v-5.248h-1.606v-.768h1.606v-.419q0-.988.454-1.455.454-.467 1.415-.467zM47.71 27.643v.821h-1.123q-.532 0-.739.218-.206.217-.206.77v.532h2.067v.768h-2.067V36h-.989v-5.248h-1.606v-.768h1.606v-.419q0-.988.454-1.455.454-.467 1.415-.467zM55.016 32.498v.483h-4.281v.033q-.043 1.23.47 1.767.513.537 1.447.537.473 0 .989-.15.515-.15 1.1-.457v.983q-.563.23-1.087.346-.524.116-1.012.116-1.402 0-2.192-.84-.79-.841-.79-2.318 0-1.44.774-2.3.774-.859 2.063-.859 1.149 0 1.812.78.664.778.707 1.879zm-.989-.29q-.064-.623-.454-1.077-.389-.454-1.12-.454-.714 0-1.176.473-.462.473-.505 1.063zM61.699 35.694q-.398.23-.82.346-.421.116-.861.116-1.397 0-2.184-.838-.787-.838-.787-2.32 0-1.483.787-2.32.787-.839 2.184-.839.435 0 .848.113.414.113.833.35v1.036q-.392-.35-.787-.505-.395-.156-.894-.156-.93 0-1.43.602-.499.601-.499 1.719 0 1.111.503 1.716.502.604 1.426.604.515 0 .923-.159.409-.158.758-.491zM66.298 28.276v1.708h2.245v.768h-2.245v3.266q0 .666.252.93.253.262.881.262h1.112V36h-1.209q-1.111 0-1.568-.446-.456-.446-.456-1.536v-3.266h-1.606v-.768h1.606v-1.708zM75.226 30.194v.967q-.424-.247-.854-.371-.43-.123-.875-.123-.672 0-1.002.217-.33.218-.33.663 0 .403.247.602.247.199 1.23.387l.397.075q.736.14 1.115.558.378.42.378 1.09 0 .892-.634 1.395-.633.502-1.761.502-.446 0-.935-.094-.489-.094-1.058-.282v-1.02q.553.284 1.058.426.505.143.956.143.655 0 1.015-.266.36-.266.36-.744 0-.688-1.316-.95l-.043-.012-.37-.075q-.854-.166-1.246-.561t-.392-1.077q0-.865.585-1.335t1.67-.47q.484 0 .93.089.445.089.875.266zM91.032 33.143l6.558-3.277v6.553zM97.893 33.336v-.924h6.837v.924zM104.893 33.336v-.924h6.837v.924zM111.893 33.336v-.924h6.837v.924zM118.893 33.336v-.924h6.837v.924zM125.893 33.336v-.924h6.837v.924zM135.879 39.32v-5.984h-2.986v-.924h2.986v-7.111h.86v14.018zM234.309 36.419l-3.277-6.553h6.558zM9.879 13.32V6.411h3.851v.924h-2.992v5.983z"/><path d="M9.879 26.32V12.3h.86v14.02zM33.436 15.255v1.101q-.495-.317-.991-.478-.497-.161-1.002-.161-.768 0-1.214.357-.446.357-.446.964 0 .532.293.811.293.28 1.093.467l.57.13q1.127.262 1.643.826.515.564.515 1.537 0 1.144-.709 1.745-.709.602-2.062.602-.564 0-1.133-.121-.57-.12-1.144-.363v-1.154q.617.392 1.168.574.55.183 1.109.183.822 0 1.278-.368.457-.368.457-1.029 0-.601-.314-.918-.315-.317-1.093-.489l-.58-.134q-1.118-.253-1.623-.763-.504-.51-.504-1.37 0-1.074.722-1.72.722-.648 1.92-.648.462 0 .972.105.51.104 1.075.314zM36.047 20.723v-3.728h.989v3.728q0 .81.287 1.192.287.381.889.381.698 0 1.069-.491.37-.492.37-1.41v-3.4h.994V23h-.994v-.902q-.263.52-.717.79-.454.268-1.06.268-.924 0-1.375-.604-.452-.605-.452-1.83zM46.93 19.998q0-1.15-.365-1.735-.365-.586-1.08-.586-.719 0-1.09.588-.37.589-.37 1.733 0 1.138.37 1.73.371.59 1.09.59.715 0 1.08-.586.366-.585.366-1.734zm-2.905-2.246q.236-.44.652-.676.417-.237.965-.237 1.085 0 1.708.836.623.835.623 2.301 0 1.488-.626 2.334-.626.846-1.716.846-.537 0-.948-.234-.411-.234-.658-.68V23h-.988v-8.357h.988zM54.226 17.194v.967q-.424-.247-.854-.371-.43-.123-.875-.123-.672 0-1.002.217-.33.218-.33.663 0 .403.247.602.247.199 1.23.387l.397.075q.736.14 1.115.558.378.42.378 1.09 0 .892-.634 1.395-.633.502-1.761.502-.446 0-.935-.094-.489-.094-1.058-.282v-1.02q.553.284 1.058.426.505.143.956.143.655 0 1.015-.266.36-.266.36-.744 0-.688-1.316-.95l-.043-.012-.37-.075q-.854-.166-1.246-.561t-.392-1.077q0-.865.585-1.335t1.67-.47q.484 0 .93.089.445.089.875.266zM61.699 22.694q-.398.23-.82.346-.421.116-.861.116-1.397 0-2.184-.838-.787-.838-.787-2.32 0-1.483.787-2.32.787-.839 2.184-.839.435 0 .848.113.414.113.833.35v1.036q-.392-.35-.787-.505-.395-.156-.894-.156-.93 0-1.43.602-.499.601-.499 1.719 0 1.111.503 1.716.502.604 1.426.604.515 0 .923-.159.409-.158.758-.491zM69.204 18.225q-.317-.247-.645-.36-.328-.113-.72-.113-.923 0-1.412.58-.489.58-.489 1.676V23h-.994v-6.016h.994v1.177q.247-.64.76-.98.513-.342 1.217-.342.365 0 .682.092.317.091.607.284zM71.697 17.006h2.53v5.226h1.96V23h-4.909v-.768h1.96v-4.458h-1.54zm1.542-2.337h.988v1.247h-.988zM79.014 22.243v3.045h-.993v-8.304h.993v.768q.247-.445.658-.679.411-.234.948-.234 1.09 0 1.71.844.621.843.621 2.336 0 1.466-.623 2.302-.623.835-1.708.835-.548 0-.959-.234-.41-.234-.647-.68zm2.9-2.245q0-1.15-.362-1.735-.363-.586-1.077-.586-.72 0-1.09.588-.37.589-.37 1.733 0 1.138.37 1.73.37.59 1.09.59.714 0 1.077-.586.363-.585.363-1.734zM87.298 15.276v1.708h2.245v.768h-2.245v3.266q0 .666.252.93.253.262.881.262h1.112V23h-1.209q-1.111 0-1.568-.446-.456-.446-.456-1.536v-3.266h-1.606v-.768h1.606v-1.708zM92.697 17.006h2.53v5.226h1.96V23h-4.909v-.768h1.96v-4.458h-1.54zm1.542-2.337h.988v1.247h-.988zM101.309 17.677q-.752 0-1.14.586-.386.585-.386 1.735 0 1.144.387 1.732.387.588 1.139.588.757 0 1.144-.588.386-.588.386-1.732 0-1.15-.386-1.735-.387-.586-1.144-.586zm0-.838q1.251 0 1.914.811.664.811.664 2.348 0 1.541-.66 2.35-.662.808-1.918.808-1.252 0-1.913-.809-.66-.808-.66-2.35 0-1.536.66-2.347.661-.81 1.913-.81zM110.645 19.272V23h-.994v-3.728q0-.81-.284-1.192-.285-.381-.892-.381-.693 0-1.066.491-.373.492-.373 1.41V23h-.989v-6.016h.989v.903q.263-.516.714-.782.451-.266 1.069-.266.918 0 1.372.605.454.604.454 1.828zM117.226 17.194v.967q-.424-.247-.854-.371-.43-.123-.875-.123-.672 0-1.002.217-.33.218-.33.663 0 .403.247.602.247.199 1.23.387l.397.075q.736.14 1.115.558.378.42.378 1.09 0 .892-.634 1.395-.633.502-1.761.502-.446 0-.935-.094-.489-.094-1.058-.282v-1.02q.553.284 1.058.426.505.143.956.143.655 0 1.015-.266.36-.266.36-.744 0-.688-1.316-.95l-.043-.012-.37-.075q-.854-.166-1.246-.561t-.392-1.077q0-.865.585-1.335t1.67-.47q.484 0 .93.089.445.089.875.266zM125.893 20.336v-.924h6.837v.924zM135.879 26.32v-5.984h-2.986v-.924h2.986v-7.111h.86v14.018zM175.79 19.922v-4.941h1.09v5.436q0 .585.032.835t.113.384q.172.317.497.478.325.16.787.16.467 0 .79-.16.321-.161.499-.478.08-.135.112-.382.033-.247.033-.827v-5.446h1.085v4.941q0 1.23-.153 1.749-.154.518-.53.856-.354.317-.81.473-.457.156-1.026.156-.564 0-1.02-.156-.457-.156-.817-.473-.37-.333-.527-.862-.155-.529-.155-1.743zM187.226 17.194v.967q-.424-.247-.854-.371-.43-.123-.875-.123-.672 0-1.002.217-.33.218-.33.663 0 .403.247.602.247.199 1.23.387l.397.075q.736.14 1.115.558.378.42.378 1.09 0 .892-.634 1.395-.633.502-1.761.502-.446 0-.935-.094-.489-.094-1.058-.282v-1.02q.553.284 1.058.426.505.143.956.143.655 0 1.015-.266.36-.266.36-.744 0-.688-1.316-.95l-.043-.012-.37-.075q-.854-.166-1.246-.561t-.392-1.077q0-.865.585-1.335t1.67-.47q.484 0 .93.089.445.089.875.266zM195.016 19.498v.483h-4.281v.033q-.043 1.23.47 1.767.513.537 1.447.537.473 0 .989-.15.515-.15 1.1-.457v.983q-.563.23-1.087.346-.524.116-1.012.116-1.402 0-2.192-.84-.79-.841-.79-2.318 0-1.44.774-2.3.774-.859 2.063-.859 1.149 0 1.812.78.664.778.707 1.879zm-.989-.29q-.064-.623-.454-1.077-.389-.454-1.12-.454-.714 0-1.176.473-.462.473-.505 1.063zM202.204 18.225q-.317-.247-.645-.36-.328-.113-.72-.113-.923 0-1.412.58-.489.58-.489 1.676V23h-.994v-6.016h.994v1.177q.247-.64.76-.98.513-.342 1.217-.342.365 0 .682.092.317.091.607.284zM209.893 20.336v-.924h6.837v.924zM216.893 20.336v-.924h6.837v.924zM223.893 20.336v-.924h6.837v.924zM233.879 26.32v-5.984h-2.986v-.924h3.845v6.907zM13.893 7.336v-.924h6.837v.924zM20.893 7.336v-.924h6.837v.924zM27.893 7.336v-.924h6.837v.924zM34.893 7.336v-.924h6.837v.924zM41.893 7.336v-.924h6.837v.924zM48.893 7.336v-.924h6.837v.924zM55.893 7.336v-.924h6.837v.924zM62.893 7.336v-.924h6.837v.924zM69.893 7.336v-.924h6.837v.924zM76.893 7.336v-.924h6.837v.924zM83.893 7.336v-.924h6.837v.924zM90.893 7.336v-.924h6.837v.924zM97.893 7.336v-.924h6.837v.924zM104.893 7.336v-.924h6.837v.924zM111.893 7.336v-.924h6.837v.924zM118.893 7.336v-.924h6.837v.924zM125.893 7.336v-.924h6.837v.924z"/><path d="M135.879 13.32V7.335h-2.986v-.924h3.845v6.907z"/></svg>
